<?xml version="1.0" standalone="no"?>
<!DOCTYPE svg PUBLIC "-//W3C//DTD SVG 20010904//EN"
 "http://www.w3.org/TR/2001/REC-SVG-20010904/DTD/svg10.dtd">
<svg version="1.0" xmlns="http://www.w3.org/2000/svg"
 width="1890.000000pt" height="1417.000000pt" viewBox="0 0 1890.000000 1417.000000"
 preserveAspectRatio="xMidYMid meet">

<g transform="translate(0.000000,1417.000000) scale(0.100000,-0.100000)"
fill="#000000" stroke="none">
<path d="M3305 11630 l-39 -40 23 -24 c22 -23 22 -25 6 -56 -9 -17 -25 -65
-36 -107 -47 -187 -2 -385 123 -535 l39 -47 -3 -128 -3 -128 -151 -5 c-131 -4
-155 -8 -173 -24 -25 -22 -44 -81 -39 -116 l3 -25 510 0 510 0 3 25 c7 44 -17
100 -51 120 -28 17 -51 20 -174 20 l-143 0 0 54 0 53 93 -5 c102 -5 172 6 259
42 56 23 58 23 74 5 24 -27 35 -24 79 21 l39 40 -176 178 -177 177 19 85 c11
47 20 88 20 93 0 4 16 7 35 7 90 0 114 119 31 158 -53 26 -116 -14 -116 -74
l0 -32 -100 -12 -101 -12 -160 166 c-89 91 -166 166 -173 166 -7 0 -29 -18
-51 -40z m637 -603 c217 -222 249 -259 237 -273 -11 -13 -51 23 -311 283 -165
164 -354 355 -420 426 -103 109 -119 129 -107 143 11 13 35 -7 181 -153 93
-92 282 -284 420 -426z m-225 107 c197 -201 359 -369 361 -374 6 -15 -130 -52
-213 -57 -44 -3 -96 -1 -115 4 l-35 9 -5 70 c-3 38 -11 79 -18 92 -42 73 -186
84 -241 18 -8 -9 -17 -16 -21 -16 -16 0 -99 137 -119 197 -28 83 -36 185 -22
269 13 74 44 154 59 154 6 0 171 -165 369 -366z m291 259 c3 -28 -1 -33 -23
-39 -29 -7 -55 10 -55 35 0 25 22 42 50 39 20 -2 26 -9 28 -35z m-181 -121
l-37 -37 -31 32 -32 31 49 7 c27 3 56 7 64 9 27 4 24 -4 -13 -42z m52 -51 c-6
-28 -14 -51 -18 -51 -4 0 -16 9 -26 20 -18 20 -18 21 15 55 19 19 35 33 37 31
2 -2 -2 -26 -8 -55z m-238 -350 c28 -28 29 -33 29 -125 l0 -96 -105 0 -105 0
0 96 c0 92 1 97 29 125 24 24 38 29 76 29 38 0 52 -5 76 -29z m29 -291 c0 -19
-7 -20 -105 -20 -98 0 -105 1 -105 20 0 19 7 20 105 20 98 0 105 -1 105 -20z
m338 -76 c14 -10 22 -25 22 -45 l0 -29 -467 2 -468 3 3 25 c1 14 12 33 23 43
19 16 56 17 443 17 365 0 425 -2 444 -16z"/>
<path d="M3525 10835 c-14 -13 -25 -31 -25 -40 0 -21 44 -65 65 -65 21 0 65
44 65 65 0 21 -44 65 -65 65 -9 0 -27 -11 -40 -25z m63 -36 c4 -19 -27 -34
-41 -20 -14 14 0 43 20 39 10 -2 19 -10 21 -19z"/>
<path d="M6270 11663 c-95 -16 -230 -81 -306 -148 -69 -60 -139 -164 -171
-255 -34 -99 -43 -246 -19 -340 45 -180 165 -329 329 -410 76 -38 90 -42 101
-29 8 8 47 119 87 248 41 129 80 239 87 245 58 45 74 67 67 94 -10 42 -34 62
-74 62 -33 0 -47 10 -141 105 -58 58 -110 105 -118 105 -7 0 -15 -7 -19 -16
-4 -11 26 -48 102 -124 89 -90 106 -111 100 -129 -4 -14 0 -31 10 -47 16 -25
14 -33 -56 -259 l-73 -234 -35 15 c-148 62 -278 217 -316 375 -82 349 160 676
515 696 506 29 785 -588 430 -948 -68 -68 -152 -125 -170 -114 -5 3 -10 15
-10 26 0 27 -18 59 -33 59 -22 0 -181 -155 -175 -171 6 -17 214 -83 230 -73 6
4 8 24 4 53 l-6 46 58 30 c67 34 187 150 227 219 77 132 104 307 71 450 -39
164 -160 324 -304 399 -119 63 -272 90 -392 70z m123 -597 c9 -22 -19 -42 -37
-26 -19 15 -10 40 14 40 10 0 20 -6 23 -14z m162 -565 c7 -43 7 -44 -18 -37
-15 3 -39 11 -54 17 l-28 11 39 34 c22 19 43 31 47 27 4 -5 10 -28 14 -52z"/>
<path d="M12370 11550 c-15 -28 -27 -40 -43 -40 -35 0 -67 -11 -67 -23 0 -6
13 -25 29 -42 27 -27 29 -34 22 -72 -11 -57 1 -66 54 -41 l43 21 36 -22 c47
-29 59 -21 50 36 -6 41 -4 47 27 79 38 39 33 49 -26 62 -32 6 -44 15 -60 45
-11 20 -26 37 -32 37 -7 0 -22 -18 -33 -40z m45 -50 c4 -13 19 -23 36 -27 27
-5 28 -7 14 -23 -8 -9 -15 -31 -15 -49 0 -29 -2 -31 -21 -21 -11 6 -34 8 -51
5 -27 -6 -29 -5 -23 15 5 15 1 28 -15 45 l-21 22 30 6 c17 4 32 14 36 27 3 11
10 20 15 20 5 0 12 -9 15 -20z"/>
<path d="M6357 11564 c-4 -4 -7 -27 -7 -51 0 -37 3 -43 21 -43 18 0 20 5 17
47 -3 44 -15 62 -31 47z"/>
<path d="M11754 11551 c-103 -47 -164 -140 -164 -252 0 -37 7 -83 15 -102 8
-20 15 -39 15 -42 0 -3 -23 -5 -50 -5 -41 0 -71 -11 -170 -60 -97 -49 -121
-65 -126 -86 -9 -35 10 -72 43 -85 25 -10 39 -6 118 35 50 25 101 46 115 46
21 0 3 -22 -118 -143 -123 -123 -142 -147 -142 -174 0 -17 7 -39 16 -47 23
-23 77 -20 100 5 10 12 41 39 68 61 38 30 51 36 62 27 8 -6 14 -16 14 -22 0
-6 -32 -43 -71 -84 -63 -64 -70 -76 -65 -101 9 -35 32 -52 70 -52 25 0 48 19
141 113 61 61 151 156 201 210 l89 98 73 -11 73 -10 62 41 c136 91 174 152
127 199 -33 33 -70 25 -141 -30 -64 -50 -90 -59 -119 -40 -8 5 -10 10 -4 10
21 0 105 83 126 124 13 24 23 68 26 109 4 60 2 73 -27 131 -34 70 -87 120
-149 142 -55 20 -159 17 -208 -5z m136 -27 c0 -3 -12 -45 -27 -95 -17 -55 -32
-89 -40 -89 -23 0 -63 -48 -63 -75 0 -33 41 -75 73 -75 13 0 35 8 48 18 24 18
25 18 99 -16 l75 -35 -43 -38 c-112 -99 -288 -63 -356 72 -33 67 -35 144 -5
206 24 50 89 110 134 122 34 10 105 14 105 5z m95 -27 c76 -43 127 -154 111
-239 -12 -63 -17 -64 -100 -28 -59 26 -81 42 -97 69 l-21 35 28 93 c16 51 31
93 34 93 3 0 23 -10 45 -23z m-131 -213 c19 -19 4 -57 -21 -52 -26 5 -39 34
-24 52 17 20 26 20 45 0z m-152 -211 c53 -36 105 -52 170 -53 63 0 148 -31
148 -54 0 -8 3 -22 6 -31 6 -15 -1 -16 -62 -10 l-69 7 -90 -100 c-49 -55 -94
-101 -100 -101 -5 -1 -47 36 -92 81 l-83 83 61 61 c34 35 58 67 55 73 -4 6
-29 11 -57 11 l-49 0 0 36 0 36 63 -7 c41 -5 74 -15 99 -32z m-202 -8 c0 -31
-59 -73 -72 -52 -15 24 -7 44 25 60 43 21 47 21 47 -8z m728 -2 c2 -13 -5 -27
-19 -36 -20 -15 -23 -14 -40 6 -18 21 -18 22 3 40 27 23 52 18 56 -10z m-842
-59 c8 -31 -9 -45 -46 -42 -35 4 -37 33 -3 52 38 21 42 20 49 -10z m755 -28
c-5 -6 -23 -19 -39 -28 l-30 -18 -7 27 c-5 23 -1 32 21 52 l28 23 18 -22 c12
-15 15 -27 9 -34z m-551 -201 l84 -85 -49 -50 c-52 -52 -63 -58 -83 -38 -9 9
-3 22 30 55 l42 43 -45 46 -45 45 -43 -31 c-34 -25 -45 -29 -57 -19 -8 6 -14
16 -14 22 0 11 80 97 90 97 3 0 43 -38 90 -85z m-193 -60 c7 -20 -24 -55 -49
-55 -23 0 -24 27 -1 52 20 22 42 23 50 3z m123 -150 c10 -13 10 -19 -5 -35
-22 -24 -55 -26 -55 -3 0 17 27 53 40 53 4 0 13 -7 20 -15z"/>
<path d="M11950 11441 c0 -11 9 -23 21 -26 11 -4 27 -22 35 -41 10 -23 21 -34
35 -34 18 0 20 4 14 28 -14 59 -105 122 -105 73z"/>
<path d="M12020 11280 c0 -13 7 -20 20 -20 13 0 20 7 20 20 0 13 -7 20 -20 20
-13 0 -20 -7 -20 -20z"/>
<path d="M11657 10972 c-26 -26 -47 -52 -47 -58 0 -13 93 -104 106 -104 13 0
104 93 104 106 0 13 -93 104 -106 104 -5 0 -31 -22 -57 -48z m83 -86 l-30 -31
-27 28 -27 27 29 30 29 30 28 -27 28 -27 -30 -30z"/>
<path d="M9660 11495 c-14 -15 -21 -32 -17 -44 3 -13 -8 -31 -38 -61 l-42 -41
-6 36 c-11 69 18 65 -486 65 -269 0 -462 -4 -471 -10 -13 -8 -16 -61 -20 -346
l-5 -338 -30 -8 c-43 -11 -55 -34 -55 -105 0 -111 -47 -103 575 -103 622 0
575 -8 575 103 0 72 -18 107 -56 107 l-24 0 0 268 0 268 53 52 c40 40 60 52
83 52 36 0 74 35 74 68 0 29 -34 62 -63 62 -13 0 -34 -11 -47 -25z m59 -51
c-9 -11 -15 -12 -25 -3 -11 9 -12 15 -3 25 9 11 15 12 25 3 11 -9 12 -15 3
-25z m-209 -92 c0 -53 -11 -82 -31 -82 -5 0 -9 21 -11 48 l-3 47 -400 0 -400
0 -3 -279 c-2 -217 1 -281 10 -288 15 -9 758 -11 782 -2 14 5 16 33 16 209 0
189 1 203 20 220 20 18 20 17 20 -228 l0 -247 -445 0 -445 0 0 330 0 330 445
0 445 0 0 -58z m-80 -75 c0 -52 -1 -53 -74 -126 -51 -51 -78 -71 -87 -65 -8 4
-47 33 -88 63 l-74 55 -87 -94 -87 -94 -31 13 c-18 8 -32 20 -32 29 0 24 -31
52 -58 52 -56 0 -83 -68 -42 -105 14 -13 29 -16 56 -12 23 4 47 1 65 -8 15 -8
36 -15 46 -14 10 0 53 41 96 90 l79 89 78 -60 c43 -33 83 -60 87 -60 5 0 41
30 81 66 l72 66 0 -161 0 -161 -365 0 -365 0 0 238 c0 131 3 242 7 245 3 4
168 7 365 7 l358 0 0 -53z m-600 -227 c0 -13 -7 -20 -20 -20 -13 0 -20 7 -20
20 0 13 7 20 20 20 13 0 20 -7 20 -20z m90 -362 c1 -52 35 -68 147 -68 103 0
136 13 143 55 l5 30 190 0 190 0 0 -60 0 -60 -530 0 -530 0 -3 49 c-5 80 -15
76 198 76 l190 0 0 -22z m250 2 c0 -19 -7 -20 -105 -20 -98 0 -105 1 -105 20
0 19 7 20 105 20 98 0 105 -1 105 -20z"/>
<path d="M9090 10975 c0 -88 1 -95 20 -95 19 0 20 7 20 95 0 88 -1 95 -20 95
-19 0 -20 -7 -20 -95z"/>
<path d="M9260 10930 c0 -43 3 -50 20 -50 17 0 20 7 20 50 0 43 -3 50 -20 50
-17 0 -20 -7 -20 -50z"/>
<path d="M8790 10910 c0 -23 4 -30 20 -30 16 0 20 7 20 30 0 23 -4 30 -20 30
-16 0 -20 -7 -20 -30z"/>
<path d="M8920 10900 c0 -13 7 -20 20 -20 13 0 20 7 20 20 0 13 -7 20 -20 20
-13 0 -20 -7 -20 -20z"/>
<path d="M11462 11403 c5 -26 38 -29 38 -4 0 15 -6 21 -21 21 -14 0 -19 -5
-17 -17z"/>
<path d="M11420 11360 c0 -13 7 -20 20 -20 13 0 20 -7 20 -20 0 -13 7 -20 20
-20 13 0 20 7 20 20 0 13 -7 20 -20 20 -13 0 -20 7 -20 20 0 13 -7 20 -20 20
-13 0 -20 -7 -20 -20z"/>
<path d="M11510 11360 c0 -13 7 -20 20 -20 13 0 20 7 20 20 0 13 -7 20 -20 20
-13 0 -20 -7 -20 -20z"/>
<path d="M5863 11064 c-7 -19 13 -34 47 -34 34 0 54 15 47 34 -4 11 -19 16
-47 16 -28 0 -43 -5 -47 -16z"/>
<path d="M6783 11064 c-7 -19 13 -34 48 -34 29 0 55 23 44 40 -10 17 -85 12
-92 -6z"/>
<path d="M12270 10830 c0 -13 7 -20 20 -20 13 0 20 7 20 20 0 13 -7 20 -20 20
-13 0 -20 -7 -20 -20z"/>
<path d="M12230 10785 c0 -8 9 -15 20 -15 11 0 20 7 20 15 0 8 -9 15 -20 15
-11 0 -20 -7 -20 -15z"/>
<path d="M12320 10785 c0 -8 9 -15 20 -15 11 0 20 7 20 15 0 8 -9 15 -20 15
-11 0 -20 -7 -20 -15z"/>
<path d="M12272 10743 c5 -26 38 -29 38 -4 0 15 -6 21 -21 21 -14 0 -19 -5
-17 -17z"/>
<path d="M11870 10680 c0 -13 7 -20 20 -20 13 0 20 -7 20 -20 0 -13 7 -20 20
-20 13 0 20 7 20 20 0 13 -7 20 -20 20 -13 0 -20 7 -20 20 0 13 -7 20 -20 20
-13 0 -20 -7 -20 -20z"/>
<path d="M11830 10641 c0 -15 6 -21 21 -21 25 0 22 33 -4 38 -12 2 -17 -3 -17
-17z"/>
<path d="M11870 10590 c0 -13 7 -20 20 -20 13 0 20 7 20 20 0 13 -7 20 -20 20
-13 0 -20 -7 -20 -20z"/>
<path d="M12130 10590 c0 -11 7 -20 15 -20 8 0 15 9 15 20 0 11 -7 20 -15 20
-8 0 -15 -9 -15 -20z"/>
<path d="M12080 10550 c0 -13 7 -20 20 -20 13 0 20 7 20 20 0 13 -7 20 -20 20
-13 0 -20 -7 -20 -20z"/>
<path d="M12170 10550 c0 -13 7 -20 20 -20 13 0 20 7 20 20 0 13 -7 20 -20 20
-13 0 -20 -7 -20 -20z"/>
<path d="M12130 10510 c0 -11 7 -20 15 -20 8 0 15 9 15 20 0 11 -7 20 -15 20
-8 0 -15 -9 -15 -20z"/>
</g>
</svg>
